<svg xmlns="http://www.w3.org/2000/svg" width="109" height="46" viewBox="0 0 109 46"><g fill="none"><path fill="#005597" d="M.24 18.3s8.42-.53 9.65-1.05l-.2 16.53s-.2 2.8 3.54 2.8c3.97.06 3.83-2.8 3.83-2.8V21.35s-.14-2.15-3.3-2v-.96s6.9.03 9.2-1.06v3.57s3.75-3.3 7.34-3.42c3.6-.15 6.87 2.47 6.97 5.75.1 3.3 0 11.15 0 11.15s0 2.28 3.45 2.24c3.46-.05 3.27-2.1 3.27-2.1V5.87s.37-2.57-3.3-2.57V2.2s7.97-.05 9.2-1.1v19.77s4.3-3.57 8.33-3.14c4.02.42 6.1 3 6.1 5.9.05 2.9 0 10.58 0 10.58s-.14 2.5 3.45 2.45c3.73-.05 3.35-2.15 3.35-2.15v-13s-.1-1.96-3.26-2v-.87s7.4-.33 9.2-1.2v3.54s4-3.4 8.15-3.2c4.16.2 6.24 3.8 6.3 5.62.04 1.8 0 11.23 0 11.23s-.15 2.04 3.63 2c0 0 3.27.42 3.55-1.86V21.25s-.33-1.76-3.36-1.8v-1s7.76-.06 9.5-1v17.2s.58 2.03 3.7 2v.94h-26.3v-.97s3.2.14 3.2-1.96V24.1s.16-3.04-3.9-3c-4.03.06-4.46 2.15-4.46 2.15V34.6s.44 2.04 3.18 2.04v.95H55.1v-.97s3.1.38 3.13-1.96c.05-2.28 0-10.47 0-10.47s.2-3.28-3.97-3.28c-2.7 0-4.26 1.95-4.26 1.95V34.4s-.14 2.24 3.17 2.24v.95H28v-.97s3.13.2 3.18-1.8c.04-2 0-11.2 0-11.2s-.1-2.82-3.93-2.82c-2.74 0-4.26 1.97-4.26 1.97v11.38s-.3 2.38 3.1 2.48v.95H0v-.96s3.64.14 3.8-2.34c.13-2.47 0-13.05 0-13.05S3.58 19 .2 19.4l.04-1.1zm10.2-11.15c0 2.24-1.8 4.05-4 4.05-2.23 0-4.03-1.8-4.03-4.05A4.02 4.02 0 0 1 6.45 3.1c2.23 0 4.03 1.8 4.03 4.05zm95.2.34c0 2.22-1.8 4.03-4.02 4.03-2.23 0-4.02-1.8-4.02-4.05s1.8-4.06 4.02-4.06c2.22.05 4.02 1.8 4.02 4.05z"/><path fill="#2A428F" d="M1.04 44.97a.96.96 0 0 1-.7-.3c-.3-.27-.3-.56-.3-1.13 0-.52 0-.86.3-1.14a.96.96 0 0 1 .7-.3c.52 0 .9.3 1 .87H1.6c-.04-.3-.23-.48-.56-.48-.14 0-.33.03-.43.17-.12.15-.16.3-.16.86 0 .57.04.72.18.86.1.1.25.2.44.2.28 0 .52-.2.57-.5h.43c-.1.57-.52.86-1 .86zm5.5-.28a.96.96 0 0 1-.72.26.96.96 0 0 1-.7-.28c-.3-.3-.3-.6-.3-1.16 0-.52 0-.85.3-1.14a.96.96 0 0 1 .7-.3.96.96 0 0 1 .7.3c.3.3.3.57.3 1.14s0 .86-.3 1.15zm-.34-2.03a.6.6 0 0 0-.43-.18c-.14 0-.33.03-.42.2-.15.12-.15.26-.15.83s.05.72.15.86c.1.1.23.2.42.2.14 0 .33-.07.43-.2.14-.15.14-.3.14-.87.05-.52 0-.7-.14-.85zm5.25 2.3L10.17 43v1.95h-.42V42.2h.37l1.28 1.96V42.2h.43v2.77zm4.16 0c-.4 0-.7-.1-.97-.4l.28-.28a.96.96 0 0 0 .7.3c.4 0 .6-.16.6-.45a.41.41 0 0 0-.1-.28c-.05-.05-.15-.1-.3-.1l-.32-.05c-.24-.04-.43-.1-.52-.23a.7.7 0 0 1-.2-.54c0-.48.34-.8.96-.8.4 0 .62.1.86.32l-.3.28c-.18-.14-.37-.24-.6-.24-.33 0-.52.2-.52.43 0 .1.05.2.1.24.04.05.18.1.32.14l.33.05c.24.04.38.1.5.2a.8.8 0 0 1 .26.55c-.05.53-.47.8-1.04.8zm4.85 0c-.57 0-1-.4-1-.96v-1.85h.43v1.8c0 .4.24.63.57.63.33 0 .56-.25.56-.63v-1.8h.44V44c.05.57-.42.95-1 .95zm4.02 0V42.2h.42v2.44h1.32v.38h-1.74zm5.2-2.44v2.43h-.42v-2.43h-.76v-.38h1.93v.38zm4.92 2.43l-.2-.57h-1.1l-.18.56h-.48l1-2.76H34l1 2.77h-.4zm-.7-2.2L33.45 44h.85l-.42-1.23zm5.56 2.2L38.2 43v1.96h-.44V42.2h.38l1.28 1.96V42.2h.43v2.77zm4.4-2.43v2.43h-.42v-2.43h-.76v-.38h1.94v.38zm4.3 2.43c-.42 0-.7-.1-.98-.38l.28-.3a.96.96 0 0 0 .7.3c.4 0 .58-.15.58-.44 0-.14-.05-.24-.1-.28a.39.39 0 0 0-.28-.1l-.33-.05c-.24-.03-.43-.1-.52-.22a.7.7 0 0 1-.2-.53c0-.48.35-.8.96-.8.38 0 .62.1.85.32l-.27.28c-.2-.14-.38-.24-.6-.24-.35 0-.53.2-.53.44 0 .1.03.2.08.24.05.06.2.1.33.15l.35.05c.24.05.38.1.52.2a.8.8 0 0 1 .24.56c-.04.53-.46.8-1.03.8zm8.95 0l-.23-.3c-.14.1-.33.3-.75.3-.56 0-.9-.33-.9-.8 0-.4.3-.63.58-.82-.15-.14-.3-.33-.3-.62 0-.33.3-.62.67-.62.38 0 .67.3.67.63 0 .24-.15.38-.3.48 0 0-.13.1-.18.16l.57.72c.1-.15.15-.3.15-.58h.38c0 .37-.1.6-.28.85l.47.57h-.52v.05zm-1.13-1.38c-.18.13-.37.28-.37.5 0 .3.22.5.5.5.2 0 .34-.06.53-.25l-.66-.76zm.2-1.1c-.2 0-.3.1-.3.28 0 .1.1.24.25.38a.68.68 0 0 1 .15-.1c.1-.1.2-.14.2-.28-.06-.14-.15-.3-.3-.3zm8 .04v.86h1.13v.38h-1.15v1.2h-.43V42.2h1.75v.4h-1.32zm5.7 2.15a.96.96 0 0 1-.7.27.96.96 0 0 1-.7-.28c-.3-.3-.3-.6-.3-1.16 0-.52 0-.85.3-1.14a.96.96 0 0 1 .7-.3.96.96 0 0 1 .7.3c.3.3.3.57.3 1.14s0 .86-.3 1.15zm-.32-2.02a.6.6 0 0 0-.42-.18c-.15 0-.34.04-.43.2-.15.13-.15.27-.15.84s.05.73.14.87c.07.1.22.2.4.2.15 0 .34-.06.43-.2.14-.14.14-.3.14-.86.05-.5 0-.7-.14-.84zm5.1 2.3l-.56-1.2h-.53v1.2h-.42V42.2h1.1c.5 0 .84.34.84.82a.77.77 0 0 1-.58.76l.63 1.24h-.48v-.05zm-.5-2.44h-.62v.87h.6c.3 0 .48-.14.48-.43 0-.24-.17-.43-.46-.43zM80 44.98V43.1l-.62 1.4h-.33l-.66-1.4v1.87h-.45V42.2h.43l.8 1.72.8-1.7h.42v2.75zm5.06 0l-.2-.57H83.8l-.2.57h-.4l.98-2.76h.33l1 2.78h-.43zm-.7-2.2l-.44 1.25h.86l-.43-1.24zm4.58-.23v2.43h-.43v-2.43h-.73v-.38h1.94v.38zm3.6 2.43V42.2h1.74v.4H92.9v.8h1.15v.38H92.9v.86h1.38v.38h-1.75zm5.58 0c-.57 0-1-.38-1-.95v-1.86h.43v1.8c0 .4.24.63.57.63.33 0 .56-.26.56-.64v-1.8h.43V44c0 .57-.4.95-.97.95zm5.53 0l-.57-1.2h-.52v1.2h-.42V42.2h1.1c.5 0 .84.34.84.82a.77.77 0 0 1-.57.76l.63 1.24h-.47v-.05zm-.47-2.43h-.62v.86h.62c.28 0 .47-.14.47-.43 0-.24-.2-.43-.47-.43zm4.6 2.43c-.44 0-.72-.1-1-.38l.28-.3a.96.96 0 0 0 .7.3c.4 0 .57-.16.57-.45 0-.14-.04-.24-.1-.28-.04-.05-.13-.1-.27-.1l-.33-.05c-.24-.04-.43-.1-.53-.23a.7.7 0 0 1-.2-.54c0-.48.35-.8.96-.8.38 0 .62.1.85.32l-.26.28c-.2-.14-.38-.24-.62-.24-.32 0-.5.2-.5.43 0 .1.04.2.1.24.04.05.18.1.32.14l.33.05c.24.04.38.1.52.2a.8.8 0 0 1 .23.55c-.04.53-.47.8-1.03.8z"/><path fill="#0097D9" d="M1.04 44.97a.96.96 0 0 1-.7-.3c-.3-.27-.3-.56-.3-1.13 0-.52 0-.86.3-1.14a.96.96 0 0 1 .7-.3c.52 0 .9.3 1 .87H1.6c-.04-.3-.23-.48-.56-.48-.14 0-.33.03-.43.17-.12.15-.16.3-.16.86 0 .57.04.72.18.86.1.1.25.2.44.2.28 0 .52-.2.57-.5h.43c-.1.57-.52.86-1 .86zm5.5-.28a.96.96 0 0 1-.72.26.96.96 0 0 1-.7-.28c-.3-.3-.3-.6-.3-1.16 0-.52 0-.85.3-1.14a.96.96 0 0 1 .7-.3.96.96 0 0 1 .7.3c.3.3.3.57.3 1.14s0 .86-.3 1.15zm-.34-2.03a.6.6 0 0 0-.43-.18c-.14 0-.33.03-.42.2-.15.12-.15.26-.15.83s.05.72.15.86c.1.1.23.2.42.2.14 0 .33-.07.43-.2.14-.15.14-.3.14-.87.05-.52 0-.7-.14-.85zm5.25 2.3L10.17 43v1.95h-.42V42.2h.37l1.28 1.96V42.2h.43v2.77zm4.16 0c-.4 0-.7-.1-.97-.4l.28-.28a.96.96 0 0 0 .7.3c.4 0 .6-.16.6-.45a.41.41 0 0 0-.1-.28c-.05-.05-.15-.1-.3-.1l-.32-.05c-.24-.04-.43-.1-.52-.23a.7.7 0 0 1-.2-.54c0-.48.34-.8.96-.8.4 0 .62.1.86.32l-.3.28c-.18-.14-.37-.24-.6-.24-.33 0-.52.2-.52.43 0 .1.05.2.1.24.04.05.18.1.32.14l.33.05c.24.04.38.1.5.2a.8.8 0 0 1 .26.55c-.05.53-.47.8-1.04.8zm4.85 0c-.57 0-1-.4-1-.96v-1.85h.43v1.8c0 .4.24.63.57.63.33 0 .56-.25.56-.63v-1.8h.44V44c.05.57-.42.95-1 .95zm4.02 0V42.2h.42v2.44h1.32v.38h-1.74zm5.2-2.44v2.43h-.42v-2.43h-.76v-.38h1.93v.38zm4.92 2.43l-.2-.57h-1.1l-.18.56h-.48l1-2.76H34l1 2.77h-.4zm-.7-2.2L33.45 44h.85l-.42-1.23zm5.56 2.2L38.2 43v1.96h-.44V42.2h.38l1.28 1.96V42.2h.43v2.77zm4.4-2.43v2.43h-.42v-2.43h-.76v-.38h1.94v.38zm4.3 2.43c-.42 0-.7-.1-.98-.38l.28-.3a.96.96 0 0 0 .7.3c.4 0 .58-.15.58-.44 0-.14-.05-.24-.1-.28a.39.39 0 0 0-.28-.1l-.33-.05c-.24-.03-.43-.1-.52-.22a.7.7 0 0 1-.2-.53c0-.48.35-.8.96-.8.38 0 .62.1.85.32l-.27.28c-.2-.14-.38-.24-.6-.24-.35 0-.53.2-.53.44 0 .1.03.2.08.24.05.06.2.1.33.15l.35.05c.24.05.38.1.52.2a.8.8 0 0 1 .24.56c-.04.53-.46.8-1.03.8zm8.95 0l-.23-.3c-.14.1-.33.3-.75.3-.56 0-.9-.33-.9-.8 0-.4.3-.63.58-.82-.15-.14-.3-.33-.3-.62 0-.33.3-.62.67-.62.38 0 .67.3.67.63 0 .24-.15.38-.3.48 0 0-.13.1-.18.16l.57.72c.1-.15.15-.3.15-.58h.38c0 .37-.1.6-.28.85l.47.57h-.52v.05zm-1.13-1.38c-.18.13-.37.28-.37.5 0 .3.22.5.5.5.2 0 .34-.06.53-.25l-.66-.76zm.2-1.1c-.2 0-.3.1-.3.28 0 .1.1.24.25.38a.68.68 0 0 1 .15-.1c.1-.1.2-.14.2-.28-.06-.14-.15-.3-.3-.3zm8 .04v.86h1.13v.38h-1.15v1.2h-.43V42.2h1.75v.4h-1.32zm5.7 2.15a.96.96 0 0 1-.7.27.96.96 0 0 1-.7-.28c-.3-.3-.3-.6-.3-1.16 0-.52 0-.85.3-1.14a.96.96 0 0 1 .7-.3.96.96 0 0 1 .7.3c.3.3.3.57.3 1.14s0 .86-.3 1.15zm-.32-2.02a.6.6 0 0 0-.42-.18c-.15 0-.34.04-.43.2-.15.13-.15.27-.15.84s.05.73.14.87c.07.1.22.2.4.2.15 0 .34-.06.43-.2.14-.14.14-.3.14-.86.05-.5 0-.7-.14-.84zm5.1 2.3l-.56-1.2h-.53v1.2h-.42V42.2h1.1c.5 0 .84.34.84.82a.77.77 0 0 1-.58.76l.63 1.24h-.48v-.05zm-.5-2.44h-.62v.87h.6c.3 0 .48-.14.48-.43 0-.24-.17-.43-.46-.43zM80 44.98V43.1l-.62 1.4h-.33l-.66-1.4v1.87h-.45V42.2h.43l.8 1.72.8-1.7h.42v2.75zm5.06 0l-.2-.57H83.8l-.2.57h-.4l.98-2.76h.33l1 2.78h-.43zm-.7-2.2l-.44 1.25h.86l-.43-1.24zm4.58-.23v2.43h-.43v-2.43h-.73v-.38h1.94v.38zm3.6 2.43V42.2h1.74v.4H92.9v.8h1.15v.38H92.9v.86h1.38v.38h-1.75zm5.58 0c-.57 0-1-.38-1-.95v-1.86h.43v1.8c0 .4.24.63.57.63.33 0 .56-.26.56-.64v-1.8h.43V44c0 .57-.4.95-.97.95zm5.53 0l-.57-1.2h-.52v1.2h-.42V42.2h1.1c.5 0 .84.34.84.82a.77.77 0 0 1-.57.76l.63 1.24h-.47v-.05zm-.47-2.43h-.62v.86h.62c.28 0 .47-.14.47-.43 0-.24-.2-.43-.47-.43zm4.6 2.43c-.44 0-.72-.1-1-.38l.28-.3a.96.96 0 0 0 .7.3c.4 0 .57-.16.57-.45 0-.14-.04-.24-.1-.28-.04-.05-.13-.1-.27-.1l-.33-.05c-.24-.04-.43-.1-.53-.23a.7.7 0 0 1-.2-.54c0-.48.35-.8.96-.8.38 0 .62.1.85.32l-.26.28c-.2-.14-.38-.24-.62-.24-.32 0-.5.2-.5.43 0 .1.04.2.1.24.04.05.18.1.32.14l.33.05c.24.04.38.1.52.2a.8.8 0 0 1 .23.55c-.04.53-.47.8-1.03.8z"/><path fill="#2A428F" d="M55.92 3.53h-.52v1.05h-.52v-2.8h1.08c.57 0 .9.37.9.85-.04.52-.38.9-.94.9zm-.05-1.24h-.52v.75h.52c.24 0 .38-.15.38-.38.05-.24-.14-.4-.38-.4zm3.08 2.27l-.53-1.1h-.37v1.1h-.52v-2.8h1.08c.6 0 .9.37.9.85 0 .38-.2.62-.5.7l.6 1.2h-.65v.05zm-.43-2.28H58V3h.52c.24 0 .38-.13.38-.37 0-.2-.14-.33-.38-.33zm3.36 2c-.2.2-.43.27-.76.27s-.57-.1-.75-.28c-.3-.3-.3-.63-.3-1.1 0-.5 0-.8.3-1.1.18-.2.42-.3.75-.3s.57.1.76.3c.28.28.28.6.28 1.1 0 .47 0 .8-.28 1.1zm-.38-1.9a.43.43 0 0 0-.33-.16c-.14 0-.3.04-.33.14-.1.1-.14.23-.14.75s.04.67.14.76c.1.1.2.15.33.15.14 0 .28-.05.33-.15.1-.08.14-.22.14-.75s-.05-.62-.14-.76zm2.46 1.12h-.52v1.05h-.52v-2.8h1.1c.55 0 .9.37.9.85 0 .52-.35.9-.96.9zm0-1.24h-.52v.76h.52c.24 0 .38-.15.38-.38 0-.24-.14-.4-.38-.4zm3.07 2.28l-.52-1.1h-.35v1.1h-.52v-2.8h1.08c.58 0 .9.37.9.85 0 .4-.22.63-.5.7l.56 1.26h-.62zm-.42-2.28h-.5V3h.5c.26 0 .4-.13.4-.37 0-.2-.14-.33-.4-.33zm1.68 2.28v-2.8h1.84v.47h-1.27v.66h1.1v.5h-1.1v.7h1.28v.47zm3.64-2.3v2.3h-.5v-2.3h-.72V1.8h2v.48zm1.33 2.3v-2.8h1.85v.47h-1.3v.66h1.1v.5h-1.1v.7h1.28v.47h-1.85zm1-3.05h-.34l.24-.65h.52l-.42.66z"/><path fill="#0097D9" d="M55.92 3.53h-.52v1.05h-.52v-2.8h1.08c.57 0 .9.37.9.85-.04.52-.38.9-.94.9zm-.05-1.24h-.52v.75h.52c.24 0 .38-.15.38-.38.05-.24-.14-.4-.38-.4zm3.08 2.27l-.53-1.1h-.37v1.1h-.52v-2.8h1.08c.6 0 .9.37.9.85 0 .38-.2.62-.5.7l.6 1.2h-.65v.05zm-.43-2.28H58V3h.52c.24 0 .38-.13.38-.37 0-.2-.14-.33-.38-.33zm3.36 2c-.2.2-.43.27-.76.27s-.57-.1-.75-.28c-.3-.3-.3-.63-.3-1.1 0-.5 0-.8.3-1.1.18-.2.42-.3.75-.3s.57.1.76.3c.28.28.28.6.28 1.1 0 .47 0 .8-.28 1.1zm-.38-1.9a.43.43 0 0 0-.33-.16c-.14 0-.3.04-.33.14-.1.1-.14.23-.14.75s.04.67.14.76c.1.1.2.15.33.15.14 0 .28-.05.33-.15.1-.08.14-.22.14-.75s-.05-.62-.14-.76zm2.46 1.12h-.52v1.05h-.52v-2.8h1.1c.55 0 .9.37.9.85 0 .52-.35.9-.96.9zm0-1.24h-.52v.76h.52c.24 0 .38-.15.38-.38 0-.24-.14-.4-.38-.4zm3.07 2.28l-.52-1.1h-.35v1.1h-.52v-2.8h1.08c.58 0 .9.37.9.85 0 .4-.22.63-.5.7l.56 1.26h-.62zm-.42-2.28h-.5V3h.5c.26 0 .4-.13.4-.37 0-.2-.14-.33-.4-.33zm1.68 2.28v-2.8h1.84v.47h-1.27v.66h1.1v.5h-1.1v.7h1.28v.47zm3.64-2.3v2.3h-.5v-2.3h-.72V1.8h2v.48zm1.33 2.3v-2.8h1.85v.47h-1.3v.66h1.1v.5h-1.1v.7h1.28v.47h-1.85zm1-3.05h-.34l.24-.65h.52l-.42.66z"/><path fill="#2A428F" d="M54.73 9.68v-2.8h1.85v.46H55.3V8h1.1v.5h-1.1v.65h1.28v.48h-1.84zm4.22 0l-1.1-1.72v1.72h-.5v-2.8h.46l1.1 1.7v-1.7h.53v2.8zm2.3 0h-.4l-.9-2.8h.56l.58 1.8.57-1.8h.57zm1.43 0v-2.8h.52v2.8zm2.9 0l-.53-1.1h-.38v1.1h-.52v-2.8h1.1c.56 0 .9.37.9.85 0 .38-.25.62-.53.7l.6 1.2h-.65v.05zm-.44-2.3h-.52v.73h.52c.24 0 .38-.13.38-.36 0-.2-.14-.34-.38-.34zm3.36 2c-.2.2-.42.3-.76.3s-.56-.1-.75-.3c-.3-.27-.3-.6-.3-1.08 0-.48 0-.8.3-1.1.17-.2.4-.3.73-.3.33 0 .57.1.76.3.27.3.27.62.27 1.1 0 .47 0 .8-.28 1.1zm-.42-1.9a.43.43 0 0 0-.34-.14c-.14 0-.28.05-.33.15-.07.07-.12.2-.12.74s.05.67.14.76c.1.1.2.15.34.15.15 0 .3-.04.34-.14.1-.07.14-.22.14-.74 0-.48 0-.62-.14-.76zm3.07 2.2l-1.1-1.72v1.72h-.5v-2.8H70l1.08 1.7v-1.7h.52v2.8zm2.98 0l-1.1-1.72v1.72h-.5v-2.8H73l1.08 1.7v-1.7h.52v2.8zm1.33 0v-2.8h1.84v.46h-1.28V8h1.1v.5H76v.65h1.28v.48h-1.84zm4.5 0V8.06l-.53 1.05h-.38l-.52-1.03V9.7H78V6.9h.53l.7 1.5.72-1.5h.52v2.8zm1.36 0v-2.8h1.85v.46H81.9V8h1.08v.5h-1.1v.65h1.3v.48H81.3zm4.2 0l-1.08-1.72v1.72h-.52v-2.8h.48l1.08 1.7v-1.7H86v2.8zm2.38-2.3v2.3h-.52v-2.3h-.7v-.46h1.97v.47z"/><path fill="#0097D9" d="M54.73 9.68v-2.8h1.85v.46H55.3V8h1.1v.5h-1.1v.65h1.28v.48h-1.84zm4.22 0l-1.1-1.72v1.72h-.5v-2.8h.46l1.1 1.7v-1.7h.53v2.8zm2.3 0h-.4l-.9-2.8h.56l.58 1.8.57-1.8h.57zm1.43 0v-2.8h.52v2.8zm2.9 0l-.53-1.1h-.38v1.1h-.52v-2.8h1.1c.56 0 .9.37.9.85 0 .38-.25.62-.53.7l.6 1.2h-.65v.05zm-.44-2.3h-.52v.73h.52c.24 0 .38-.13.38-.36 0-.2-.14-.34-.38-.34zm3.36 2c-.2.2-.42.3-.76.3s-.56-.1-.75-.3c-.3-.27-.3-.6-.3-1.08 0-.48 0-.8.3-1.1.17-.2.4-.3.73-.3.33 0 .57.1.76.3.27.3.27.62.27 1.1 0 .47 0 .8-.28 1.1zm-.42-1.9a.43.43 0 0 0-.34-.14c-.14 0-.28.05-.33.15-.07.07-.12.2-.12.74s.05.67.14.76c.1.1.2.15.34.15.15 0 .3-.04.34-.14.1-.07.14-.22.14-.74 0-.48 0-.62-.14-.76zm3.07 2.2l-1.1-1.72v1.72h-.5v-2.8H70l1.08 1.7v-1.7h.52v2.8zm2.98 0l-1.1-1.72v1.72h-.5v-2.8H73l1.08 1.7v-1.7h.52v2.8zm1.33 0v-2.8h1.84v.46h-1.28V8h1.1v.5H76v.65h1.28v.48h-1.84zm4.5 0V8.06l-.53 1.05h-.38l-.52-1.03V9.7H78V6.9h.53l.7 1.5.72-1.5h.52v2.8zm1.36 0v-2.8h1.85v.46H81.9V8h1.08v.5h-1.1v.65h1.3v.48H81.3zm4.2 0l-1.08-1.72v1.72h-.52v-2.8h.48l1.08 1.7v-1.7H86v2.8zm2.38-2.3v2.3h-.52v-2.3h-.7v-.46h1.97v.47z"/><path fill="#2A428F" d="M55.5 14.73c-.43 0-.77-.1-1-.38l.33-.34c.2.2.42.26.66.26.3 0 .45-.14.45-.33a.36.36 0 0 0-.1-.24c-.04-.06-.08-.1-.23-.1l-.33-.05c-.24-.05-.43-.1-.53-.24a.76.76 0 0 1-.2-.52c0-.47.4-.85.96-.85.38 0 .66.1.9.33l-.33.33c-.18-.2-.37-.2-.56-.2-.3 0-.43.15-.43.34 0 .04 0 .14.1.2a.36.36 0 0 0 .25.08l.33.06c.24.05.43.1.53.24a.8.8 0 0 1 .24.57c-.05.56-.47.85-1.04.85zm1.7 0v-2.77h1.84v.48h-1.28v.67h1.1v.5h-1.1v.66h1.28v.48zm4.02 0l-.52-1.1h-.38v1.1h-.52v-2.77h1.08c.57 0 .9.38.9.86 0 .38-.23.62-.52.72l.62 1.2h-.66zm-.43-2.34h-.54v.75h.52c.23 0 .37-.15.37-.4a.37.37 0 0 0-.38-.37zm2.7 2.32h-.45l-.9-2.77h.57l.57 1.8.55-1.8h.57zm1.44 0v-2.77h.52v2.77zm2.27 0c-.27 0-.55-.1-.74-.3a.78.78 0 0 1-.24-.42c-.05-.13-.05-.37-.05-.7 0-.3 0-.53.05-.72.05-.14.1-.28.24-.42.2-.2.47-.3.75-.3.53 0 .96.34 1.06.87h-.57c-.06-.24-.2-.38-.5-.38-.13 0-.27.04-.32.14-.1.12-.15.22-.15.8 0 .5 0 .65.14.8.1.1.18.14.32.14.3 0 .42-.14.47-.38h.56c-.1.57-.47.86-1.04.86zm1.7 0v-2.77h1.86v.48H69.5v.67h1.08v.48H69.5v.67h1.27v.48zm3.33 0c-.43 0-.76-.1-1-.38l.34-.34c.2.2.42.25.66.25.33 0 .47-.14.47-.33a.36.36 0 0 0-.08-.24c-.05-.05-.1-.1-.24-.1l-.33-.04c-.24-.05-.43-.1-.52-.24a.76.76 0 0 1-.2-.53c0-.47.4-.85.96-.85.36 0 .64.1.9.33l-.36.33c-.2-.2-.37-.2-.56-.2-.3 0-.44.16-.44.35 0 .04 0 .14.1.2a.36.36 0 0 0 .23.08l.32.07c.23.05.42.1.5.24a.8.8 0 0 1 .25.58c0 .57-.47.86-1.04.86zm4.4 0l-.14-.48h-1l-.2.48h-.56l1-2.77h.42l1 2.77h-.53zm-.66-2l-.33 1h.7l-.37-1zm2.5 2c-.42 0-.75-.1-1-.38l.34-.34c.2.2.44.25.67.25.33 0 .48-.14.48-.33a.36.36 0 0 0-.1-.24c-.05-.05-.1-.1-.24-.1l-.32-.04c-.24-.05-.43-.1-.53-.24a.76.76 0 0 1-.2-.53c0-.47.4-.85.96-.85.4 0 .67.1.9.33l-.32.33c-.2-.2-.38-.2-.57-.2-.27 0-.4.16-.4.35 0 .04 0 .14.1.2a.36.36 0 0 0 .23.08l.33.07c.23.05.42.1.52.24a.8.8 0 0 1 .22.58c0 .57-.47.86-1.04.86zm2.46 0c-.42 0-.75-.1-1-.38l.34-.34c.2.2.43.25.66.25.33 0 .48-.14.48-.33a.36.36 0 0 0-.1-.24c-.03-.05-.1-.1-.22-.1l-.34-.04c-.24-.05-.43-.1-.53-.24a.76.76 0 0 1-.2-.53c0-.47.4-.85.97-.85.37 0 .65.1.9.33l-.34.33c-.2-.2-.38-.2-.57-.2-.3 0-.43.16-.43.35 0 .04 0 .14.1.2a.36.36 0 0 0 .23.08l.33.07c.22.05.4.1.5.24a.8.8 0 0 1 .24.58c0 .57-.42.86-1.04.86zm3.4-.3c-.18.2-.42.3-.75.3s-.58-.1-.76-.3c-.3-.27-.3-.6-.3-1.08 0-.48 0-.8.3-1.1.2-.2.42-.3.75-.3s.56.1.75.3c.28.3.28.62.28 1.1 0 .47 0 .8-.28 1.1zm-.37-1.9a.43.43 0 0 0-.33-.14c-.14 0-.28.04-.33.14-.1.1-.13.23-.13.76s.04.66.14.76c.1.1.2.14.35.14s.28-.04.33-.14c.1-.1.14-.24.14-.76s-.03-.67-.13-.76zm2.37 2.2c-.3 0-.57-.1-.76-.3a.78.78 0 0 1-.24-.42c-.04-.13-.04-.37-.04-.7 0-.3 0-.53.03-.72.05-.14.1-.28.24-.42.2-.2.47-.3.76-.3.52 0 .94.34 1.04.87h-.57c-.04-.24-.18-.38-.46-.38-.14 0-.3.04-.33.14-.1.12-.13.22-.13.8 0 .5 0 .65.15.8.1.1.2.14.34.14.28 0 .42-.14.47-.38h.58c-.13.57-.5.86-1.03.86zm1.65 0v-2.77h.5v2.77zm1.36 0v-2.77h1.85v.48H89.9v.67H91v.48h-1.1v.67h1.28v.48h-1.84zm1-3.05H90l.24-.67h.52l-.42.68zm2.32 3.05c-.43 0-.76-.1-1-.38L92 14c.2.2.44.25.68.25.33 0 .47-.14.47-.33a.36.36 0 0 0-.1-.24c-.04-.05-.1-.1-.23-.1l-.33-.04c-.26-.05-.45-.1-.54-.24a.72.72 0 0 1-.2-.53c0-.47.4-.85.95-.85.4 0 .68.1.9.33l-.32.33c-.2-.2-.4-.2-.58-.2-.28 0-.42.16-.42.35 0 .04 0 .14.1.2a.36.36 0 0 0 .23.08l.34.07c.24.05.43.1.52.24a.8.8 0 0 1 .24.58c0 .57-.48.86-1.04.86z"/><path fill="#0097D9" d="M55.5 14.73c-.43 0-.77-.1-1-.38l.33-.34c.2.2.42.26.66.26.3 0 .45-.14.45-.33a.36.36 0 0 0-.1-.24c-.04-.06-.08-.1-.23-.1l-.33-.05c-.24-.05-.43-.1-.53-.24a.76.76 0 0 1-.2-.52c0-.47.4-.85.96-.85.38 0 .66.1.9.33l-.33.33c-.18-.2-.37-.2-.56-.2-.3 0-.43.15-.43.34 0 .04 0 .14.1.2a.36.36 0 0 0 .25.08l.33.06c.24.05.43.1.53.24a.8.8 0 0 1 .24.57c-.05.56-.47.85-1.04.85zm1.7 0v-2.77h1.84v.48h-1.28v.67h1.1v.5h-1.1v.66h1.28v.48zm4.02 0l-.52-1.1h-.38v1.1h-.52v-2.77h1.08c.57 0 .9.38.9.86 0 .38-.23.62-.52.72l.62 1.2h-.66zm-.43-2.34h-.54v.75h.52c.23 0 .37-.15.37-.4a.37.37 0 0 0-.38-.37zm2.7 2.32h-.45l-.9-2.77h.57l.57 1.8.55-1.8h.57zm1.44 0v-2.77h.52v2.77zm2.27 0c-.27 0-.55-.1-.74-.3a.78.78 0 0 1-.24-.42c-.05-.13-.05-.37-.05-.7 0-.3 0-.53.05-.72.05-.14.1-.28.24-.42.2-.2.47-.3.75-.3.53 0 .96.34 1.06.87h-.57c-.06-.24-.2-.38-.5-.38-.13 0-.27.04-.32.14-.1.12-.15.22-.15.8 0 .5 0 .65.14.8.1.1.18.14.32.14.3 0 .42-.14.47-.38h.56c-.1.57-.47.86-1.04.86zm1.7 0v-2.77h1.86v.48H69.5v.67h1.08v.48H69.5v.67h1.27v.48zm3.33 0c-.43 0-.76-.1-1-.38l.34-.34c.2.2.42.25.66.25.33 0 .47-.14.47-.33a.36.36 0 0 0-.08-.24c-.05-.05-.1-.1-.24-.1l-.33-.04c-.24-.05-.43-.1-.52-.24a.76.76 0 0 1-.2-.53c0-.47.4-.85.96-.85.36 0 .64.1.9.33l-.36.33c-.2-.2-.37-.2-.56-.2-.3 0-.44.16-.44.35 0 .04 0 .14.1.2a.36.36 0 0 0 .23.08l.32.07c.23.05.42.1.5.24a.8.8 0 0 1 .25.58c0 .57-.47.86-1.04.86zm4.4 0l-.14-.48h-1l-.2.48h-.56l1-2.77h.42l1 2.77h-.53zm-.66-2l-.33 1h.7l-.37-1zm2.5 2c-.42 0-.75-.1-1-.38l.34-.34c.2.2.44.25.67.25.33 0 .48-.14.48-.33a.36.36 0 0 0-.1-.24c-.05-.05-.1-.1-.24-.1l-.32-.04c-.24-.05-.43-.1-.53-.24a.76.76 0 0 1-.2-.53c0-.47.4-.85.96-.85.4 0 .67.1.9.33l-.32.33c-.2-.2-.38-.2-.57-.2-.27 0-.4.16-.4.35 0 .04 0 .14.1.2a.36.36 0 0 0 .23.08l.33.07c.23.05.42.1.52.24a.8.8 0 0 1 .22.58c0 .57-.47.86-1.04.86zm2.46 0c-.42 0-.75-.1-1-.38l.34-.34c.2.2.43.25.66.25.33 0 .48-.14.48-.33a.36.36 0 0 0-.1-.24c-.03-.05-.1-.1-.22-.1l-.34-.04c-.24-.05-.43-.1-.53-.24a.76.76 0 0 1-.2-.53c0-.47.4-.85.97-.85.37 0 .65.1.9.33l-.34.33c-.2-.2-.38-.2-.57-.2-.3 0-.43.16-.43.35 0 .04 0 .14.1.2a.36.36 0 0 0 .23.08l.33.07c.22.05.4.1.5.24a.8.8 0 0 1 .24.58c0 .57-.42.86-1.04.86zm3.4-.3c-.18.2-.42.3-.75.3s-.58-.1-.76-.3c-.3-.27-.3-.6-.3-1.08 0-.48 0-.8.3-1.1.2-.2.42-.3.75-.3s.56.1.75.3c.28.3.28.62.28 1.1 0 .47 0 .8-.28 1.1zm-.37-1.9a.43.43 0 0 0-.33-.14c-.14 0-.28.04-.33.14-.1.1-.13.23-.13.76s.04.66.14.76c.1.1.2.14.35.14s.28-.04.33-.14c.1-.1.14-.24.14-.76s-.03-.67-.13-.76zm2.37 2.2c-.3 0-.57-.1-.76-.3a.78.78 0 0 1-.24-.42c-.04-.13-.04-.37-.04-.7 0-.3 0-.53.03-.72.05-.14.1-.28.24-.42.2-.2.47-.3.76-.3.52 0 .94.34 1.04.87h-.57c-.04-.24-.18-.38-.46-.38-.14 0-.3.04-.33.14-.1.12-.13.22-.13.8 0 .5 0 .65.15.8.1.1.2.14.34.14.28 0 .42-.14.47-.38h.58c-.13.57-.5.86-1.03.86zm1.65 0v-2.77h.5v2.77zm1.36 0v-2.77h1.85v.48H89.9v.67H91v.48h-1.1v.67h1.28v.48h-1.84zm1-3.05H90l.24-.67h.52l-.42.68zm2.32 3.05c-.43 0-.76-.1-1-.38L92 14c.2.2.44.25.68.25.33 0 .47-.14.47-.33a.36.36 0 0 0-.1-.24c-.04-.05-.1-.1-.23-.1l-.33-.04c-.26-.05-.45-.1-.54-.24a.72.72 0 0 1-.2-.53c0-.47.4-.85.95-.85.4 0 .68.1.9.33l-.32.33c-.2-.2-.4-.2-.58-.2-.28 0-.42.16-.42.35 0 .04 0 .14.1.2a.36.36 0 0 0 .23.08l.34.07c.24.05.43.1.52.24a.8.8 0 0 1 .24.58c0 .57-.48.86-1.04.86z"/></g></svg>