<?xml version="1.0" standalone="no"?>
<!DOCTYPE svg PUBLIC "-//W3C//DTD SVG 1.1//EN" "http://www.w3.org/Graphics/SVG/1.1/DTD/svg11.dtd" >
<svg xmlns="http://www.w3.org/2000/svg">
<metadata>Generated by IcoMoon</metadata>
<defs>
<font id="inhni" horiz-adv-x="1024">
<font-face units-per-em="1024" ascent="960" descent="-64" />
<missing-glyph horiz-adv-x="1024" />
<glyph unicode="&#x20;" horiz-adv-x="512" d="" />
<glyph unicode="&#xe900;" glyph-name="up-arrow" d="M861.287 625.791c14.443-14.443 14.443-37.181 0-51.625-13.955-13.955-37.181-13.955-51.104 0l-261.766 261.766v-863.824c0-20.136-16.005-36.14-36.14-36.14s-36.661 16.005-36.661 36.14v863.857l-261.245-261.766c-14.443-13.955-37.702-13.955-51.625 0-14.443 14.443-14.443 37.181 0 51.625l323.735 323.735c13.955 13.955 37.181 13.955 51.104 0l323.702-323.767z" />
<glyph unicode="&#xe901;" glyph-name="before" d="M512-52.622c-275.342 0-500.622 225.28-500.622 500.622s225.28 500.622 500.622 500.622 500.622-225.28 500.622-500.622-225.28-500.622-500.622-500.622zM512 925.867c-263.964 0-477.867-213.902-477.867-477.867s213.902-477.867 477.867-477.867c263.964 0 477.867 213.902 477.867 477.867s-213.902 477.867-477.867 477.867zM420.978 625.493c6.827 6.827 20.48 6.827 27.307 0s6.827-18.204 0-27.307l-138.809-134.258h457.387c11.378 0 20.48-9.102 20.48-18.204s-9.102-18.204-20.48-18.204h-457.387l138.809-134.258c6.827-6.827 6.827-20.48 0-27.307s-20.48-6.827-27.307 0l-170.667 168.391c-6.827 6.827-6.827 18.204 0 27.307l170.667 163.84z" />
<glyph unicode="&#xe902;" glyph-name="calendar" d="M512-52.622c-275.342 0-500.622 225.28-500.622 500.622s225.28 500.622 500.622 500.622 500.622-225.28 500.622-500.622-225.28-500.622-500.622-500.622zM512 925.867c-263.964 0-477.867-213.902-477.867-477.867s213.902-477.867 477.867-477.867c263.964 0 477.867 213.902 477.867 477.867s-213.902 477.867-477.867 477.867zM609.849 693.76c-4.551 22.756-22.756 38.684-45.511 38.684-4.551 0-9.102-4.551-9.102-9.102s4.551-9.102 9.102-9.102c15.929 0 27.307-13.653 27.307-29.582s-13.653-29.582-27.307-29.582c-4.551 0-9.102-4.551-9.102-9.102s4.551-9.102 9.102-9.102c22.756 0 40.96 15.929 45.511 38.684h145.636v-86.471h-509.724v86.471h159.289c4.551 0 9.102 4.551 9.102 9.102s-4.551 9.102-9.102 9.102h-15.929c4.551 11.378 13.653 18.204 27.307 18.204 15.929 0 27.307-13.653 27.307-29.582s-11.378-27.307-27.307-27.307c-6.827 0-9.102-4.551-9.102-9.102s2.276-9.102 9.102-9.102c25.031 0 47.787 20.48 47.787 47.787s-22.756 47.787-47.787 47.787c-22.756 0-40.96-15.929-45.511-38.684h-143.36v-507.449h546.133v507.449h-163.84zM755.484 204.516h-509.724v364.089h507.449v-364.089zM461.938 711.964c15.929 0 27.307-13.653 27.307-29.582s-11.378-27.307-27.307-27.307c-4.551 0-9.102-4.551-9.102-9.102s4.551-9.102 9.102-9.102c25.031 0 47.787 22.756 47.787 47.787s-20.48 47.787-47.787 47.787c-4.551 0-9.102-4.551-9.102-9.102s4.551-11.378 9.102-11.378zM516.551 711.964c15.929 0 27.307-13.653 27.307-29.582s-13.653-29.582-27.307-29.582c-4.551 0-9.102-4.551-9.102-9.102s4.551-9.102 9.102-9.102c25.031 0 47.787 22.756 47.787 47.787s-22.756 50.062-47.787 50.062c-4.551 0-9.102-4.551-9.102-9.102s2.276-11.378 9.102-11.378zM471.040 466.204c0-12.568-10.188-22.756-22.756-22.756s-22.756 10.188-22.756 22.756c0 12.568 10.188 22.756 22.756 22.756s22.756-10.188 22.756-22.756zM523.378 466.204c0-12.568-10.188-22.756-22.756-22.756s-22.756 10.188-22.756 22.756c0 12.568 10.188 22.756 22.756 22.756s22.756-10.188 22.756-22.756zM580.267 466.204c0-12.568-10.188-22.756-22.756-22.756s-22.756 10.188-22.756 22.756c0 12.568 10.188 22.756 22.756 22.756s22.756-10.188 22.756-22.756zM632.604 466.204c0-12.568-10.188-22.756-22.756-22.756s-22.756 10.188-22.756 22.756c0 12.568 10.188 22.756 22.756 22.756s22.756-10.188 22.756-22.756zM689.493 466.204c0-12.568-10.188-22.756-22.756-22.756s-22.756 10.188-22.756 22.756c0 12.568 10.188 22.756 22.756 22.756s22.756-10.188 22.756-22.756zM357.262 411.591c0-12.568-10.188-22.756-22.756-22.756s-22.756 10.188-22.756 22.756c0 12.568 10.188 22.756 22.756 22.756s22.756-10.188 22.756-22.756zM414.151 411.591c0-12.568-10.188-22.756-22.756-22.756s-22.756 10.188-22.756 22.756c0 12.568 10.188 22.756 22.756 22.756s22.756-10.188 22.756-22.756zM471.040 411.591c0-12.568-10.188-22.756-22.756-22.756s-22.756 10.188-22.756 22.756c0 12.568 10.188 22.756 22.756 22.756s22.756-10.188 22.756-22.756zM523.378 411.591c0-12.568-10.188-22.756-22.756-22.756s-22.756 10.188-22.756 22.756c0 12.568 10.188 22.756 22.756 22.756s22.756-10.188 22.756-22.756zM580.267 411.591c0-12.568-10.188-22.756-22.756-22.756s-22.756 10.188-22.756 22.756c0 12.568 10.188 22.756 22.756 22.756s22.756-10.188 22.756-22.756zM632.604 411.591c0-12.568-10.188-22.756-22.756-22.756s-22.756 10.188-22.756 22.756c0 12.568 10.188 22.756 22.756 22.756s22.756-10.188 22.756-22.756zM689.493 411.591c0-12.568-10.188-22.756-22.756-22.756s-22.756 10.188-22.756 22.756c0 12.568 10.188 22.756 22.756 22.756s22.756-10.188 22.756-22.756zM357.262 352.427c0-12.568-10.188-22.756-22.756-22.756s-22.756 10.188-22.756 22.756c0 12.568 10.188 22.756 22.756 22.756s22.756-10.188 22.756-22.756zM414.151 352.427c0-12.568-10.188-22.756-22.756-22.756s-22.756 10.188-22.756 22.756c0 12.568 10.188 22.756 22.756 22.756s22.756-10.188 22.756-22.756zM471.040 352.427c0-12.568-10.188-22.756-22.756-22.756s-22.756 10.188-22.756 22.756c0 12.568 10.188 22.756 22.756 22.756s22.756-10.188 22.756-22.756zM523.378 352.427c0-12.568-10.188-22.756-22.756-22.756s-22.756 10.188-22.756 22.756c0 12.568 10.188 22.756 22.756 22.756s22.756-10.188 22.756-22.756zM580.267 352.427c0-12.568-10.188-22.756-22.756-22.756s-22.756 10.188-22.756 22.756c0 12.568 10.188 22.756 22.756 22.756s22.756-10.188 22.756-22.756zM632.604 352.427c0-12.568-10.188-22.756-22.756-22.756s-22.756 10.188-22.756 22.756c0 12.568 10.188 22.756 22.756 22.756s22.756-10.188 22.756-22.756zM689.493 352.427c0-12.568-10.188-22.756-22.756-22.756s-22.756 10.188-22.756 22.756c0 12.568 10.188 22.756 22.756 22.756s22.756-10.188 22.756-22.756zM357.262 297.813c0-12.568-10.188-22.756-22.756-22.756s-22.756 10.188-22.756 22.756c0 12.568 10.188 22.756 22.756 22.756s22.756-10.188 22.756-22.756zM414.151 297.813c0-12.568-10.188-22.756-22.756-22.756s-22.756 10.188-22.756 22.756c0 12.568 10.188 22.756 22.756 22.756s22.756-10.188 22.756-22.756zM471.040 297.813c0-12.568-10.188-22.756-22.756-22.756s-22.756 10.188-22.756 22.756c0 12.568 10.188 22.756 22.756 22.756s22.756-10.188 22.756-22.756zM523.378 297.813c0-12.568-10.188-22.756-22.756-22.756s-22.756 10.188-22.756 22.756c0 12.568 10.188 22.756 22.756 22.756s22.756-10.188 22.756-22.756zM580.267 297.813c0-12.568-10.188-22.756-22.756-22.756s-22.756 10.188-22.756 22.756c0 12.568 10.188 22.756 22.756 22.756s22.756-10.188 22.756-22.756z" />
<glyph unicode="&#xe903;" glyph-name="checkbox" d="M455.111 750.649l-31.858-52.338h-116.053c-6.827 0-11.378-4.551-11.378-11.378v-116.053c0-6.827 4.551-11.378 11.378-11.378h116.053c6.827 0 11.378 4.551 11.378 11.378v91.022l-22.756-34.133v-45.511h-93.298v93.298h88.747l-34.133-50.062-13.653 29.582c-2.276 6.827-9.102 9.102-15.929 4.551s-6.827-9.102-4.551-13.653c0 0 6.827-15.929 22.756-47.787 2.276-6.827 11.378-9.102 15.929-4.551 2.276 0 4.551 2.276 4.551 2.276l93.298 141.084c4.551 4.551 2.276 11.378-2.276 15.929-2.276 2.276-4.551 2.276-6.827 2.276-4.551 0-9.102-2.276-11.378-4.551zM509.724 655.076c-6.827 0-11.378-4.551-11.378-9.102v-18.204c-2.276-6.827 4.551-9.102 11.378-9.102h209.351c6.827 0 11.378 4.551 11.378 9.102v18.204c0 4.551-4.551 9.102-11.378 9.102h-209.351zM307.2 534.471c-6.827 0-11.378-6.827-11.378-11.378v-116.053c0-6.827 4.551-11.378 11.378-11.378h116.053c6.827 0 11.378 4.551 11.378 11.378v116.053c0 6.827-4.551 11.378-11.378 11.378h-116.053zM318.578 511.716h93.298v-93.298h-93.298v93.298zM509.724 484.409c-6.827 0-11.378-4.551-11.378-9.102v-18.204c0-4.551 4.551-9.102 11.378-9.102h209.351c6.827 0 11.378 4.551 11.378 9.102v18.204c0 4.551-4.551 9.102-11.378 9.102h-209.351zM307.2 372.907c-6.827 0-11.378-4.551-11.378-11.378v-116.053c0-6.827 4.551-13.653 11.378-13.653h116.053c6.827 0 11.378 4.551 11.378 11.378v116.053c0 6.827-4.551 11.378-11.378 11.378h-116.053zM318.578 347.876h93.298v-93.298h-93.298v93.298zM509.724 311.467c-6.827 0-11.378-4.551-11.378-9.102v-18.204c0-4.551 4.551-9.102 11.378-9.102h209.351c6.827 0 11.378 4.551 11.378 9.102v18.204c0 4.551-4.551 9.102-11.378 9.102h-209.351zM512-52.622c-275.342 0-500.622 225.28-500.622 500.622s225.28 500.622 500.622 500.622 500.622-225.28 500.622-500.622-225.28-500.622-500.622-500.622zM512 925.867c-263.964 0-477.867-213.902-477.867-477.867s213.902-477.867 477.867-477.867c263.964 0 477.867 213.902 477.867 477.867s-213.902 477.867-477.867 477.867z" />
<glyph unicode="&#xe904;" glyph-name="contrat" d="M512-52.622c-275.342 0-500.622 225.28-500.622 500.622s225.28 500.622 500.622 500.622 500.622-225.28 500.622-500.622-225.28-500.622-500.622-500.622zM512 925.867c-263.964 0-477.867-213.902-477.867-477.867s213.902-477.867 477.867-477.867c263.964 0 477.867 213.902 477.867 477.867s-213.902 477.867-477.867 477.867zM673.564 409.316c-4.551 0-9.102-4.551-9.102-6.827v-193.422c0-4.551-4.551-6.827-9.102-6.827h-293.547c-4.551 0-9.102 4.551-9.102 6.827v432.356c0 4.551 4.551 6.827 9.102 6.827h293.547c4.551 0 9.102-4.551 9.102-6.827v-47.787c0-4.551 4.551-6.827 9.102-6.827s9.102 4.551 9.102 6.827v47.787c0 13.653-11.378 22.756-25.031 22.756h-293.547c-13.653 0-25.031-11.378-25.031-22.756v-432.356c0-13.653 11.378-22.756 25.031-22.756h293.547c13.653 0 25.031 11.378 25.031 22.756v191.147c0 4.551-4.551 9.102-9.102 9.102zM807.822 630.044c-15.929 15.929-40.96 15.929-56.889 0v0l-329.956-329.956-34.133-79.644c0-2.276 0-4.551 0-6.827 2.276-2.276 4.551-4.551 6.827-4.551h2.276l79.644 34.133c0 0 2.276 0 2.276 2.276v0l327.68 327.68c18.204 15.929 18.204 40.96 2.276 56.889zM409.6 231.822l20.48 50.062 29.582-29.582-50.062-20.48zM473.316 261.404l-34.133 34.133 263.964 263.964 34.133-34.133-263.964-263.964zM748.658 536.747l-34.133 34.133 13.653 13.653 34.133-34.133-13.653-13.653zM796.444 584.533v0l-22.756-22.756-34.133 34.133 22.756 22.756c6.827 6.827 15.929 9.102 22.756 6.827 9.102-2.276 13.653-9.102 15.929-15.929 4.551-9.102 2.276-18.204-4.551-25.031zM607.573 595.911h-188.871c-4.551 0-6.827-4.551-6.827-11.378s4.551-11.378 6.827-11.378h188.871c4.551 0 6.827 4.551 6.827 11.378s-4.551 11.378-6.827 11.378zM614.4 516.267c0 6.827-4.551 11.378-6.827 11.378h-188.871c-4.551 0-6.827-4.551-6.827-11.378s4.551-11.378 6.827-11.378h188.871c2.276 0 6.827 4.551 6.827 11.378zM416.427 459.378c-4.551 0-6.827-4.551-6.827-11.378s4.551-11.378 6.827-11.378h143.36c4.551 0 6.827 4.551 6.827 11.378s-4.551 11.378-6.827 11.378h-143.36z" />
<glyph unicode="&#xe905;" glyph-name="diplome" d="M741.831 554.951c4.551 0 9.102 4.551 9.102 9.102v59.164c0 22.756-18.204 40.96-43.236 40.96h-345.884c-25.031 0-43.236-18.204-43.236-40.96v-373.191c0-22.756 18.204-43.236 43.236-43.236h84.196v-56.889c0-2.276 2.276-4.551 4.551-6.827s4.551-2.276 6.827-2.276l43.236 20.48 40.96-20.48c2.276 0 2.276 0 4.551 0s2.276 0 4.551 2.276 4.551 4.551 4.551 6.827v56.889h154.738c22.756 0 43.236 18.204 43.236 40.96v59.164c0 4.551-4.551 9.102-9.102 9.102h-61.44v238.933h59.164zM732.729 623.218v-50.062h-50.062v50.062c0 13.653 11.378 25.031 25.031 25.031s25.031-11.378 25.031-25.031zM541.582 284.16c-2.276 0-2.276-2.276-2.276-2.276-11.378-9.102-25.031-13.653-38.684-13.653-15.929 0-29.582 4.551-40.96 15.929-13.653 11.378-20.48 27.307-20.48 43.236 0 31.858 27.307 59.164 59.164 59.164s59.164-27.307 59.164-59.164c2.276-15.929-4.551-31.858-15.929-43.236zM537.031 163.556l-34.133 15.929c-2.276 2.276-4.551 2.276-6.827 0l-34.133-15.929v97.849c11.378-6.827 25.031-9.102 38.684-9.102s25.031 2.276 36.409 9.102v-97.849zM555.236 272.782c15.929 13.653 22.756 34.133 22.756 54.613 0 40.96-34.133 75.093-77.369 75.093s-77.369-34.133-77.369-75.093c0-20.48 9.102-38.684 22.756-52.338v-50.062h-84.196c-13.653 0-25.031 11.378-25.031 25.031v373.191c0 13.653 11.378 25.031 25.031 25.031h311.751c-4.551-6.827-9.102-15.929-9.102-25.031v-373.191c0-9.102 2.276-18.204 9.102-25.031h-120.604v47.787zM732.729 300.089v-50.062c0-13.653-11.378-25.031-25.031-25.031s-25.031 11.378-25.031 25.031v50.062h50.062zM500.622 368.356c-25.031 0-45.511-15.929-45.511-34.133s20.48-34.133 45.511-34.133 45.511 15.929 45.511 34.133-20.48 34.133-45.511 34.133zM500.622 313.742c-15.929 0-27.307 9.102-27.307 20.48s11.378 20.48 27.307 20.48 27.307-9.102 27.307-20.48-11.378-20.48-27.307-20.48zM582.542 459.378h-163.84c-4.551 0-9.102-4.551-9.102-11.378s4.551-11.378 9.102-11.378h163.84c4.551 0 9.102 4.551 9.102 11.378s-4.551 11.378-9.102 11.378zM607.573 527.644h-29.582c-6.827 0-9.102-4.551-9.102-11.378s2.276-11.378 6.827-11.378h29.582c6.827 0 9.102 4.551 9.102 11.378s-2.276 11.378-6.827 11.378zM395.947 504.889h163.84c4.551 0 9.102 4.551 9.102 11.378s-4.551 11.378-9.102 11.378h-163.84c-4.551 0-9.102-4.551-9.102-11.378s4.551-11.378 9.102-11.378zM411.876 552.676c2.276-2.276 4.551-2.276 6.827-2.276s4.551 0 6.827 2.276l20.48 22.756 20.48-22.756c2.276-2.276 4.551-2.276 6.827-2.276s4.551 0 6.827 2.276l20.48 22.756 20.48-22.756c2.276-2.276 4.551-2.276 6.827-2.276s4.551 0 6.827 2.276l20.48 22.756 20.48-22.756c2.276-2.276 9.102-2.276 13.653 0 2.276 2.276 2.276 6.827 0 9.102l-27.307 29.582c-2.276 4.551-4.551 4.551-6.827 4.551s-4.551 0-6.827-2.276l-20.48-22.756-20.48 22.756c-2.276 2.276-4.551 2.276-6.827 2.276s-4.551 0-6.827-2.276l-20.48-22.756-20.48 22.756c-2.276 2.276-4.551 2.276-6.827 2.276s-4.551 0-6.827-2.276l-27.307-31.858c-2.276-2.276-2.276-6.827 0-9.102zM512-52.622c-275.342 0-500.622 225.28-500.622 500.622s225.28 500.622 500.622 500.622 500.622-225.28 500.622-500.622-225.28-500.622-500.622-500.622zM512 925.867c-263.964 0-477.867-213.902-477.867-477.867s213.902-477.867 477.867-477.867c263.964 0 477.867 213.902 477.867 477.867s-213.902 477.867-477.867 477.867z" />
<glyph unicode="&#xe906;" glyph-name="down-arrow" d="M861.547 270.177c13.955 14.443 13.955 37.181 0 51.625-14.443 13.955-37.702 13.955-51.625 0l-261.766-261.766v863.824c0 20.136-16.005 36.14-36.14 36.14s-36.661-16.005-36.661-36.14v-863.824l-261.245 261.766c-14.443 13.955-37.181 13.955-51.625 0-13.955-14.443-13.955-37.181 0-51.625l323.735-323.735c13.955-13.955 37.181-13.955 51.625 0l323.702 323.735z" />
<glyph unicode="&#xe907;" glyph-name="down-arrow-angle" d="M962.878 685.346c-12.701 12.701-33.34 12.701-46.040 0l-404.837-405.631-405.631 405.631c-12.701 12.701-33.34 12.701-46.040 0s-12.701-33.34 0-46.040l427.857-427.857c6.35-6.35 14.288-9.526 23.020-9.526 7.938 0 16.67 3.175 23.020 9.526l427.857 427.857c13.495 12.701 13.495 33.34 0.794 46.040z" />
<glyph unicode="&#xe908;" glyph-name="download" d="M504.415-52.622c-275.342 0-500.622 225.28-500.622 500.622s225.28 500.622 500.622 500.622c275.342 0 500.622-225.28 500.622-500.622s-225.28-500.622-500.622-500.622zM504.415 925.867c-263.964 0-477.867-213.902-477.867-477.867s213.902-477.867 477.867-477.867 477.867 213.902 477.867 477.867c0 263.964-213.902 477.867-477.867 477.867zM493.037 664.178h47.787c11.378 0 20.48-9.102 20.48-20.48v-122.88h56.889c18.204 0 27.307-20.48 15.929-34.133l-106.951-134.258c-9.102-11.378-20.48-11.378-29.582 0l-102.4 131.982c-11.378 13.653 0 34.133 15.929 34.133h59.164v125.156c2.276 11.378 11.378 20.48 22.756 20.48zM720.593 209.067h-409.6c-11.378 0-22.756 9.102-22.756 22.756v27.307c0 11.378 9.102 22.756 22.756 22.756h409.6c11.378 0 22.756-9.102 22.756-22.756v-27.307c0-11.378-9.102-22.756-22.756-22.756z" />
<glyph unicode="&#xe909;" glyph-name="euro" d="M512-52.622c-275.342 0-500.622 225.28-500.622 500.622s225.28 500.622 500.622 500.622 500.622-225.28 500.622-500.622-225.28-500.622-500.622-500.622zM512 925.867c-263.964 0-477.867-213.902-477.867-477.867s213.902-477.867 477.867-477.867c263.964 0 477.867 213.902 477.867 477.867s-213.902 477.867-477.867 477.867zM641.707 293.262c-2.276 0-6.827 0-9.102-2.276-27.307-15.929-59.164-25.031-93.298-25.031-79.644 0-147.911 50.062-172.942 120.604h159.289c9.102 0 18.204 6.827 18.204 15.929s-6.827 15.929-18.204 15.929h-166.116c-2.276 9.102-2.276 18.204-2.276 27.307s0 15.929 2.276 27.307h166.116c9.102 0 18.204 6.827 18.204 15.929s-6.827 15.929-18.204 15.929h-159.289c25.031 75.093 95.573 120.604 172.942 120.604 31.858 0 63.716-9.102 93.298-25.031 2.276-2.276 4.551-2.276 9.102-2.276 6.827 0 11.378 2.276 15.929 9.102 4.551 9.102 2.276 18.204-6.827 22.756-31.858 25.031-70.542 34.133-109.227 34.133-97.849 0-182.044-63.716-209.351-154.738h-40.96c-11.378 0-18.204-9.102-18.204-18.204s6.827-15.929 18.204-15.929h34.133c-2.276-11.378-2.276-18.204-2.276-27.307s0-15.929 2.276-27.307h-34.133c-11.378 0-18.204-6.827-18.204-15.929s6.827-15.929 18.204-15.929h40.96c27.307-91.022 113.778-154.738 209.351-154.738 38.684 0 77.369 9.102 109.227 29.582 9.102 4.551 11.378 15.929 6.827 22.756-2.276 2.276-9.102 6.827-15.929 6.827z" />
<glyph unicode="&#xe90a;" glyph-name="facebook" d="M376.354 761.682c0-25.805 0-140.984 0-140.984h-103.289v-172.396h103.289v-512.3h212.178v512.286h142.382c0 0 13.335 82.663 19.798 173.046-18.532 0-161.378 0-161.378 0s0 100.294 0 117.874c0 17.618 23.134 41.316 45.999 41.316 22.822 0 70.99 0 115.603 0 0 23.472 0 104.573 0 179.474-59.557 0-127.314 0-157.18 0-222.647 0.012-217.402-172.555-217.402-198.315z" />
<glyph unicode="&#xe90b;" glyph-name="filter" d="M1019.627 931.635c-8.244 18.903-22.513 28.356-42.87 28.366h-929.536c-20.334 0-34.619-9.463-42.852-28.366-8.226-19.871-4.838-36.851 10.172-50.907l358.033-358.535v-353.446c0-12.622 4.601-23.519 13.797-32.745l185.9-186.162c8.722-9.203 19.611-13.824 32.688-13.824 5.805 0 11.853 1.22 18.146 3.64 18.889 8.251 28.338 22.548 28.338 42.911v539.623l358.018 358.535c15.015 14.056 18.393 31.031 10.167 50.91z" />
<glyph unicode="&#xe90c;" glyph-name="information" d="M512-52.622c-275.342 0-500.622 225.28-500.622 500.622s225.28 500.622 500.622 500.622 500.622-225.28 500.622-500.622-225.28-500.622-500.622-500.622zM512 925.867c-263.964 0-477.867-213.902-477.867-477.867s213.902-477.867 477.867-477.867c263.964 0 477.867 213.902 477.867 477.867s-213.902 477.867-477.867 477.867zM778.24 600.462h-54.613v43.236c0 25.031-20.48 43.236-45.511 43.236 0 0 0 0 0 0h-336.782c-25.031 0-45.511-20.48-45.511-43.236v-461.938c0-11.378 9.102-18.204 18.204-18.204h259.413c2.276 0 4.551 0 6.827 2.276l70.542 70.542c0 0 2.276 2.276 2.276 2.276s0 0 0 0 0 2.276 0 2.276c0 0 0 0 0 0v95.573h97.849c0 0 2.276 0 2.276 0 22.756 0 43.236 20.48 43.236 43.236v202.524c0 9.102-9.102 18.204-18.204 18.204zM314.027 643.698c0 13.653 11.378 27.307 27.307 27.307h304.924c0 0 0 0 0 0s0-2.276-2.276-2.276c0-2.276-2.276-2.276-2.276-4.551 0 0 0-2.276 0-2.276-4.551-4.551-4.551-6.827-4.551-9.102 0 0 0-2.276 0-2.276 0-2.276 0-4.551 0-9.102v-393.671h-45.511c-15.929 0-27.307-11.378-27.307-25.031v-43.236h-250.311v464.213zM582.542 193.138v31.858c0 4.551 4.551 9.102 9.102 9.102h31.858l-40.96-40.96zM653.084 354.702v288.996c0 13.653 11.378 27.307 27.307 27.307s27.307-11.378 27.307-27.307v-261.689c0-9.102 2.276-18.204 9.102-25.031h-63.716zM778.24 382.009c0-13.653-11.378-25.031-25.031-25.031-2.276 0-2.276 0-4.551 0 0 0-2.276 0-2.276 0-4.551 0-9.102 2.276-13.653 6.827-6.827 4.551-9.102 13.653-9.102 20.48v197.973h54.613v-200.249zM341.333 618.667h250.311v-22.756h-250.311zM341.333 550.4h250.311v-22.756h-250.311zM341.333 436.622h250.311v-22.756h-250.311zM341.333 368.356h250.311v-22.756h-250.311zM341.333 300.089h250.311v-22.756h-250.311z" />
<glyph unicode="&#xe90d;" glyph-name="learn" d="M760.036 686.933h-473.316c-20.48 0-36.409-18.204-36.409-38.684v-316.302c0-4.551 4.551-9.102 9.102-9.102h527.929c4.551 0 9.102 4.551 9.102 9.102v316.302c0 20.48-15.929 38.684-36.409 38.684zM778.24 341.049h-509.724v307.2c0 11.378 9.102 18.204 18.204 18.204h473.316c9.102 0 18.204-9.102 18.204-18.204v-307.2zM787.342 345.6h-527.929c-4.551 0-9.102-4.551-9.102-9.102v-45.511c0-20.48 15.929-36.409 36.409-36.409h473.316c20.48 0 36.409 15.929 36.409 36.409v45.511c0 4.551-4.551 9.102-9.102 9.102zM778.24 290.987c0-9.102-9.102-18.204-18.204-18.204h-473.316c-9.102 0-18.204 9.102-18.204 18.204v36.409h509.724v-36.409zM550.684 306.916h-56.889c-4.551 0-9.102-4.551-9.102-9.102s4.551-9.102 9.102-9.102h56.889c4.551 0 9.102 4.551 9.102 9.102s-2.276 9.102-9.102 9.102zM634.88 186.311h-223.004c-13.653 0-25.031-13.653-25.031-29.582s11.378-29.582 25.031-29.582h223.004c13.653 0 25.031 13.653 25.031 29.582s-11.378 29.582-25.031 29.582zM634.88 147.627h-223.004c-4.551 0-9.102 4.551-9.102 9.102s4.551 9.102 9.102 9.102h223.004c4.551 0 9.102-4.551 9.102-9.102-2.276-4.551-4.551-9.102-9.102-9.102zM628.053 193.138c-29.582 0-45.511 20.48-45.511 63.716 0 4.551-4.551 9.102-9.102 9.102h-91.022c-4.551 0-9.102-4.551-9.102-9.102 0-43.236-15.929-63.716-45.511-63.716-4.551 0-9.102-4.551-9.102-9.102s4.551-9.102 9.102-9.102h200.249c4.551 0 9.102 4.551 9.102 9.102s-4.551 9.102-9.102 9.102zM471.040 193.138c11.378 11.378 18.204 31.858 18.204 54.613h72.818c2.276-22.756 6.827-43.236 18.204-54.613h-109.227zM703.147 416.142l-25.031 25.031 13.653 13.653c2.276 2.276 4.551 6.827 2.276 9.102 0 4.551-4.551 6.827-6.827 6.827l-104.676 34.133c-4.551 0-6.827 0-11.378-2.276-2.276-4.551-2.276-6.827-2.276-11.378l31.858-104.676c0-4.551 4.551-6.827 6.827-6.827 4.551 0 6.827 0 9.102 2.276l13.653 15.929 25.031-25.031c4.551-4.551 6.827-4.551 9.102-4.551s4.551 0 6.827 2.276l29.582 29.582c4.551 4.551 4.551 11.378 2.276 15.929zM664.462 393.387l-22.756 22.756c-2.276 2.276-6.827 4.551-9.102 4.551-4.551 0-6.827-2.276-9.102-4.551l-6.827-6.827-20.48 70.542 68.267-20.48-9.102-9.102c-2.276-2.276-4.551-4.551-4.551-9.102 0-2.276 2.276-6.827 4.551-9.102l25.031-25.031-15.929-13.653zM628.053 641.422h-277.618c-4.551 0-9.102-4.551-9.102-9.102v-47.787c0-6.827 4.551-11.378 9.102-11.378h275.342c6.827 0 11.378 4.551 11.378 9.102v50.062c0 4.551-4.551 9.102-9.102 9.102zM616.676 593.636h-254.862v27.307h257.138v-27.307zM489.244 550.4h-91.022c-6.827 0-11.378-4.551-11.378-11.378v-45.511c0-6.827 4.551-11.378 11.378-11.378h91.022c6.827 0 11.378 4.551 11.378 11.378v45.511c0 6.827-4.551 11.378-11.378 11.378zM477.867 504.889h-68.267v22.756h68.267v-22.756zM628.053 641.422h-277.618c-4.551 0-9.102-4.551-9.102-9.102v-184.32c0-6.827 4.551-11.378 9.102-11.378h234.382c2.276 0 6.827 2.276 6.827 4.551 2.276 2.276 2.276 4.551 2.276 9.102l-11.378 40.96 40.96-11.378c2.276 0 6.827 0 9.102 2.276 2.276 0 4.551 2.276 4.551 4.551v145.636c0 4.551-4.551 9.102-9.102 9.102zM616.676 500.338l-45.511 13.653c-4.551 0-6.827 0-9.102-2.276s-4.551-6.827-2.276-9.102l13.653-45.511h-211.627v163.84h257.138v-120.604zM512-52.622c-275.342 0-500.622 225.28-500.622 500.622s225.28 500.622 500.622 500.622 500.622-225.28 500.622-500.622-225.28-500.622-500.622-500.622zM512 925.867c-263.964 0-477.867-213.902-477.867-477.867s213.902-477.867 477.867-477.867c263.964 0 477.867 213.902 477.867 477.867s-213.902 477.867-477.867 477.867z" />
<glyph unicode="&#xe90e;" glyph-name="left-arrow" d="M334.018 797.137c14.436 14.436 37.164 14.436 51.6 0 13.949-13.949 13.949-37.164 0-51.080l-261.641-261.641h863.38c20.126 0 36.643-15.997 36.643-36.123s-16.517-36.643-36.643-36.643h-863.38l261.641-261.153c13.949-14.436 13.949-37.684 0-51.6-14.436-14.436-37.164-14.436-51.6 0l-323.581 323.581c-13.949 13.949-13.949 37.164 0 51.080l323.581 323.581z" />
<glyph unicode="&#xe90f;" glyph-name="left-arrow-angle" d="M703.305-2.878c6.35-6.35 14.288-9.526 23.020-9.526s16.67 3.175 23.020 9.526c12.701 12.701 12.701 33.34 0 46.040l-404.837 404.837 404.837 404.837c12.701 12.701 12.701 33.34 0 46.040s-33.34 12.701-46.040 0l-428.651-427.857c-12.701-12.701-12.701-33.34 0-46.040l428.651-427.857z" />
<glyph unicode="&#xe910;" glyph-name="more" d="M512-52.622c-275.342 0-500.622 225.28-500.622 500.622s225.28 500.622 500.622 500.622 500.622-225.28 500.622-500.622-225.28-500.622-500.622-500.622zM512 925.867c-263.964 0-477.867-213.902-477.867-477.867s213.902-477.867 477.867-477.867c263.964 0 477.867 213.902 477.867 477.867s-213.902 477.867-477.867 477.867zM523.378 215.893c-9.102 0-18.204 6.827-18.204 18.204v409.6c0 9.102 6.827 18.204 18.204 18.204s18.204-6.827 18.204-18.204v-409.6c-2.276-11.378-9.102-18.204-18.204-18.204zM728.178 420.693h-409.6c-9.102 0-18.204 6.827-18.204 18.204s6.827 18.204 18.204 18.204h409.6c9.102 0 18.204-6.827 18.204-18.204s-9.102-18.204-18.204-18.204z" />
<glyph unicode="&#xe911;" glyph-name="people" d="M512-52.622c-275.342 0-500.622 225.28-500.622 500.622s225.28 500.622 500.622 500.622 500.622-225.28 500.622-500.622-225.28-500.622-500.622-500.622zM512 925.867c-263.964 0-477.867-213.902-477.867-477.867s213.902-477.867 477.867-477.867c263.964 0 477.867 213.902 477.867 477.867s-213.902 477.867-477.867 477.867zM753.209 473.031c18.204 13.653 31.858 36.409 31.858 63.716 0 43.236-34.133 77.369-75.093 77.369s-75.093-34.133-75.093-77.369c0-27.307 13.653-50.062 31.858-63.716-15.929-6.827-31.858-15.929-45.511-27.307-18.204 15.929-38.684 27.307-61.44 34.133 27.307 18.204 45.511 47.787 45.511 84.196 0 54.613-43.236 97.849-95.573 97.849s-95.573-43.236-95.573-97.849c0-36.409 18.204-65.991 45.511-84.196-22.756-6.827-43.236-18.204-61.44-34.133-9.102 13.653-25.031 22.756-40.96 27.307 18.204 13.653 31.858 36.409 31.858 63.716 0 43.236-34.133 77.369-75.093 77.369s-75.093-34.133-75.093-77.369c0-27.307 13.653-50.062 31.858-63.716-52.338-18.204-88.747-68.267-88.747-127.431v-9.102c0 0 0 0 0 0h159.289c0-6.827-2.276-15.929-2.276-22.756v-9.102c2.276-40.96 31.858-72.818 70.542-72.818h202.524c38.684 0 70.542 31.858 70.542 70.542v9.102c0 6.827 0 15.929-2.276 22.756h161.564c0 0 0 0 0 0v11.378c0 59.164-36.409 109.227-88.747 127.431zM655.36 536.747c0 31.858 25.031 56.889 54.613 56.889s54.613-25.031 54.613-56.889c0-29.582-25.031-54.613-52.338-56.889 0 0 0 0 0 0s0 0 0 0c-34.133 2.276-56.889 27.307-56.889 56.889zM436.907 566.329c0 43.236 34.133 77.369 75.093 77.369s75.093-34.133 75.093-77.369c0-40.96-31.858-75.093-70.542-77.369-2.276 0-2.276 0-4.551 0s-2.276 0-4.551 0c-38.684 2.276-70.542 36.409-70.542 77.369zM259.413 536.747c0 31.858 25.031 56.889 54.613 56.889s54.613-25.031 54.613-56.889c0-29.582-25.031-54.613-54.613-54.613 0 0 0 0 0 0s0 0 0 0c-29.582 0-54.613 25.031-54.613 54.613zM345.884 356.978h-143.36c6.827 56.889 54.613 102.4 111.502 102.4 0 0 0 0 0 0s0 0 0 0c27.307 0 52.338-9.102 72.818-27.307-20.48-20.48-34.133-45.511-40.96-75.093zM659.911 302.364c0-27.307-22.756-50.062-47.787-50.062h-202.524c-27.307 0-47.787 22.756-47.787 50.062v9.102c0 84.196 63.716 152.462 145.636 154.738 2.276 0 2.276 0 4.551 0s2.276 0 4.551 0c79.644-2.276 145.636-70.542 145.636-154.738v-9.102zM675.84 356.978c-6.827 27.307-20.48 54.613-38.684 75.093 18.204 18.204 45.511 27.307 72.818 27.307 0 0 0 0 0 0s0 0 0 0c56.889 0 104.676-45.511 109.227-102.4h-143.36z" />
<glyph unicode="&#xe912;" glyph-name="pin" d="M512-52.622c-275.342 0-500.622 225.28-500.622 500.622s225.28 500.622 500.622 500.622 500.622-225.28 500.622-500.622-225.28-500.622-500.622-500.622zM512 925.867c-263.964 0-477.867-213.902-477.867-477.867s213.902-477.867 477.867-477.867c263.964 0 477.867 213.902 477.867 477.867s-213.902 477.867-477.867 477.867zM523.378 709.689c-113.778 0-204.8-93.298-204.8-207.076 0-111.502 188.871-325.404 197.973-334.507 4.551-4.551 11.378-4.551 15.929 0 0 0 0 0 0 0 6.827 9.102 195.698 223.004 195.698 334.507 0 113.778-91.022 207.076-204.8 207.076zM523.378 190.862c-36.409 43.236-184.32 220.729-184.32 311.751 0 102.4 81.92 186.596 184.32 186.596s184.32-84.196 184.32-186.596c0-91.022-147.911-270.791-184.32-311.751zM512 618.667c-56.889 0-102.4-50.062-102.4-113.778s45.511-113.778 102.4-113.778c56.889 0 102.4 50.062 102.4 113.778s-45.511 113.778-102.4 113.778zM512 411.591c-45.511 0-81.92 40.96-81.92 93.298s36.409 91.022 81.92 91.022 81.92-40.96 81.92-93.298c0-47.787-36.409-91.022-81.92-91.022z" />
<glyph unicode="&#xe913;" glyph-name="plus" d="M36.441 411.559c-20.158 0-36.181 16.543-36.181 36.702s16.022 36.181 36.181 36.181h438.825v438.857c0.033 20.158 16.576 36.702 36.734 36.702s36.181-16.543 36.181-36.702v-438.857h438.825c20.158 0 36.702-16.022 36.702-36.181s-16.543-36.702-36.702-36.702h-438.825v-438.857c0-20.158-16.022-36.702-36.181-36.702s-36.702 16.543-36.702 36.702v438.857h-438.857z" />
<glyph unicode="&#xe914;" glyph-name="print" d="M505.173-52.622c-275.342 0-500.622 225.28-500.622 500.622s225.28 500.622 500.622 500.622 500.622-225.28 500.622-500.622-225.28-500.622-500.622-500.622zM505.173 925.867c-263.964 0-477.867-213.902-477.867-477.867s213.902-477.867 477.867-477.867 477.867 213.902 477.867 477.867-213.902 477.867-477.867 477.867zM400.498 634.596h227.556v-56.889h27.307v56.889c0 15.929-13.653 27.307-27.307 27.307h-227.556c-15.929 0-27.307-13.653-27.307-27.307v-56.889h27.307v56.889zM712.249 550.4h-398.222c-15.929 0-27.307-13.653-27.307-27.307v-170.667c0-15.929 13.653-27.307 27.307-27.307h56.889v-84.196c0-15.929 13.653-27.307 27.307-27.307h227.556c15.929 0 27.307 13.653 27.307 27.307v81.92h56.889c15.929 0 27.307 13.653 27.307 27.307v170.667c4.551 15.929-9.102 29.582-25.031 29.582zM628.053 238.649h-227.556v170.667h227.556v-170.667zM684.942 463.929c-15.929 0-27.307 13.653-27.307 27.307 0 15.929 13.653 27.307 27.307 27.307 15.929 0 27.307-13.653 27.307-27.307s-11.378-27.307-27.307-27.307zM571.164 320.569h-141.084v-27.307h141.084v27.307zM600.747 377.458h-170.667v-27.307h170.667v27.307z" />
<glyph unicode="&#xe915;" glyph-name="right-arrow" d="M689.55 797.181c-13.95 14.438-37.168 14.438-51.606 0-13.95-13.95-13.95-37.168 0-51.086l261.674-261.674h-863.49c-20.129-0.033-36.128-16.032-36.128-36.16s15.999-36.648 36.128-36.648h863.49l-261.674-261.187c-13.95-14.438-13.95-37.689 0-51.606 14.438-14.438 37.689-14.438 51.606 0l323.622 323.622c14.438 13.95 14.438 37.168 0 51.086l-323.622 323.654z" />
<glyph unicode="&#xe916;" glyph-name="right-arrow-angle" d="M320.695-2.878c-6.35-6.35-14.288-9.526-23.020-9.526s-16.67 3.175-23.020 9.526c-12.701 12.701-12.701 33.34 0 46.040l404.837 404.837-404.837 404.837c-12.701 12.701-12.701 33.34 0 46.040s33.34 12.701 46.040 0l427.857-427.857c12.701-12.701 12.701-33.34 0-46.040l-427.857-427.857z" />
<glyph unicode="&#xe917;" glyph-name="search" d="M991.284 27.298l-243.714 253.474c62.663 74.491 96.997 168.216 96.997 265.788 0 227.967-185.473 413.44-413.44 413.44s-413.44-185.473-413.44-413.44 185.473-413.44 413.44-413.44c85.582 0 167.137 25.813 236.865 74.815l245.565-255.398c10.264-10.66 24.069-16.538 38.863-16.538 14.003 0 27.287 5.339 37.371 15.046 21.427 20.618 22.11 54.808 1.492 76.253zM431.128 852.146c168.504 0 305.586-137.082 305.586-305.586s-137.082-305.586-305.586-305.586-305.586 137.082-305.586 305.586 137.082 305.586 305.586 305.586z" />
<glyph unicode="&#xe918;" glyph-name="send" d="M519.585-52.622c-275.342 0-500.622 225.28-500.622 500.622s225.28 500.622 500.622 500.622c275.342 0 500.622-225.28 500.622-500.622s-225.28-500.622-500.622-500.622zM519.585 925.867c-263.964 0-477.867-213.902-477.867-477.867s213.902-477.867 477.867-477.867 477.867 213.902 477.867 477.867c0 263.964-213.902 477.867-477.867 477.867zM742.59 623.218c4.551 0 9.102-2.276 11.378-4.551s4.551-6.827 4.551-11.378v-47.787c0-2.276 0-2.276-2.276-2.276s-4.551 0-4.551-2.276l-216.178-127.431c0 0 0 0-2.276 0 0 0-2.276 0-2.276 0l-225.28 127.431c-2.276 2.276-2.276 2.276-2.276 4.551v47.787c0 4.551 2.276 9.102 4.551 11.378s6.827 4.551 11.378 4.551h423.253zM756.243 513.991c2.276-2.276 2.276-2.276 2.276-4.551v-204.8c0-2.276 0-2.276-2.276-2.276 0 0 0 0-2.276 0 0 0-2.276 0-2.276 2.276l-122.88 131.982c0 0-2.276 2.276 0 2.276 0 2.276 0 2.276 2.276 2.276l122.88 72.818c0 0 0 0 2.276 0zM742.59 256.853c0-2.276 2.276-2.276 0-4.551 0-2.276-2.276-2.276-4.551-2.276h-418.702c-2.276 0-4.551 0-6.827 2.276-2.276 0-2.276 2.276-2.276 2.276 0 2.276 0 2.276 2.276 2.276l163.84 152.462c2.276 2.276 2.276 2.276 4.551 0l43.236-25.031c6.827-4.551 11.378-4.551 18.204 0l50.062 29.582c2.276 2.276 2.276 0 4.551 0l145.636-157.013zM310.234 309.191c0 0 0 0-2.276 0h-2.276c-2.276 0-2.276 2.276-2.276 4.551v193.422c0 2.276 0 2.276 2.276 2.276s2.276 0 4.551 0l127.431-72.818c2.276 0 2.276-2.276 2.276-2.276 0-2.276 0-2.276-2.276-2.276l-127.431-122.88z" />
<glyph unicode="&#xe919;" glyph-name="share" d="M641.707 363.804c-20.48 0-40.96-9.102-54.613-22.756-4.551-4.551-6.827-9.102-11.378-13.653l-134.258 81.92c4.551 9.102 4.551 18.204 4.551 29.582 0 9.102-2.276 20.48-4.551 29.582l134.258 79.644c15.929-22.756 38.684-38.684 65.991-38.684 43.236 0 77.369 34.133 77.369 77.369s-34.133 77.369-77.369 77.369-77.369-34.133-77.369-77.369c0-9.102 2.276-18.204 4.551-27.307l-131.982-79.644c-13.653 20.48-36.409 34.133-63.716 34.133-43.236 0-77.369-34.133-77.369-77.369s34.133-77.369 77.369-77.369c27.307 0 50.062 13.653 63.716 34.133l134.258-81.92c-2.276-9.102-4.551-18.204-4.551-27.307 0-20.48 9.102-40.96 22.756-54.613s34.133-22.756 54.613-22.756c20.48 0 40.96 9.102 54.613 22.756s22.756 34.133 22.756 54.613c0 20.48-9.102 40.96-22.756 54.613-15.929 15.929-34.133 25.031-56.889 25.031zM512-52.622c-275.342 0-500.622 225.28-500.622 500.622s225.28 500.622 500.622 500.622 500.622-225.28 500.622-500.622-225.28-500.622-500.622-500.622zM512 925.867c-263.964 0-477.867-213.902-477.867-477.867s213.902-477.867 477.867-477.867c263.964 0 477.867 213.902 477.867 477.867s-213.902 477.867-477.867 477.867z" />
<glyph unicode="&#xe91a;" glyph-name="target" d="M725.902 584.533l91.022 91.022c2.276 4.551 2.276 11.378 0 15.929-2.276 2.276-4.551 2.276-6.827 2.276v0l-50.062 2.276-2.276 50.062c0 6.827-4.551 11.378-11.378 9.102-2.276 0-4.551-2.276-6.827-2.276l-91.022-91.022c-2.276-2.276-2.276-4.551-2.276-6.827v-11.378c-109.227 75.093-257.138 47.787-332.231-61.44s-47.787-257.138 61.44-329.956c109.227-75.093 257.138-47.787 329.956 61.44 56.889 81.92 56.889 188.871 0 270.791h11.378c4.551-2.276 6.827-2.276 9.102 0zM728.178 448c0-120.604-97.849-216.178-216.178-218.453-120.604 0-216.178 97.849-218.453 216.178s97.849 218.453 216.178 218.453c50.062 0 97.849-15.929 136.533-47.787v-18.204l-43.236-43.236c-59.164 52.338-150.187 45.511-204.8-13.653s-45.511-150.187 13.653-204.8 150.187-45.511 204.8 13.653c47.787 54.613 47.787 134.258 2.276 188.871l43.236 43.236h18.204c29.582-38.684 47.787-86.471 47.787-134.258zM505.173 438.898c4.551-4.551 11.378-4.551 15.929 0l20.48 20.48c2.276-4.551 2.276-9.102 2.276-13.653 0-18.204-13.653-31.858-31.858-31.858s-31.858 13.653-31.858 31.858 13.653 31.858 31.858 31.858c4.551 0 9.102 0 13.653-2.276l-20.48-20.48c-4.551-4.551-4.551-11.378 0-15.929zM541.582 491.236c-25.031 15.929-56.889 9.102-72.818-15.929s-9.102-56.889 15.929-72.818 56.889-9.102 72.818 15.929c11.378 18.204 11.378 40.96 0 59.164l50.062 50.062c43.236-52.338 36.409-129.707-15.929-172.942s-129.707-38.684-175.218 13.653-36.409 129.707 15.929 172.942c45.511 38.684 113.778 38.684 159.289 0l-50.062-50.062zM669.013 605.013l-2.276 45.511 70.542 70.542 2.276-34.133c0-6.827 4.551-11.378 11.378-11.378l34.133-2.276-70.542-70.542-45.511 2.276zM512-52.622c-275.342 0-500.622 225.28-500.622 500.622s225.28 500.622 500.622 500.622 500.622-225.28 500.622-500.622-225.28-500.622-500.622-500.622zM512 925.867c-263.964 0-477.867-213.902-477.867-477.867s213.902-477.867 477.867-477.867c263.964 0 477.867 213.902 477.867 477.867s-213.902 477.867-477.867 477.867z" />
<glyph unicode="&#xe91b;" glyph-name="time" d="M723.627 181.76h-25.031v34.133h-43.236v88.747c0 22.756-11.378 45.511-31.858 59.164l-93.298 61.44 93.298 61.44c20.48 13.653 31.858 34.133 31.858 59.164v88.747h43.236v34.133h25.031c4.551 0 9.102 4.551 9.102 9.102s-4.551 9.102-9.102 9.102h-418.702c-4.551 0-9.102-4.551-9.102-9.102s4.551-9.102 9.102-9.102h27.307v-34.133h43.236v-88.747c0-22.756 11.378-45.511 31.858-59.164l93.298-61.44-93.298-61.44c-20.48-13.653-31.858-34.133-31.858-59.164v-88.747h-43.236v-34.133h-27.307c-4.551 0-9.102-4.551-9.102-9.102s4.551-9.102 9.102-9.102h418.702c4.551 0 9.102 4.551 9.102 9.102s-4.551 9.102-9.102 9.102zM348.16 652.8v18.204h332.231v-18.204h-332.231zM416.427 500.338c-13.653 9.102-22.756 27.307-22.756 43.236v88.747h243.484v-88.747c0-18.204-9.102-34.133-22.756-43.236l-97.849-65.991-100.124 65.991zM391.396 304.64c0 18.204 9.102 34.133 22.756 43.236l97.849 65.991 97.849-65.991c13.653-9.102 22.756-27.307 22.756-43.236v-88.747h-243.484l2.276 88.747zM348.16 197.689h329.956v-18.204h-332.231l2.276 18.204zM512-52.622c-275.342 0-500.622 225.28-500.622 500.622s225.28 500.622 500.622 500.622 500.622-225.28 500.622-500.622-225.28-500.622-500.622-500.622zM512 925.867c-263.964 0-477.867-213.902-477.867-477.867s213.902-477.867 477.867-477.867c263.964 0 477.867 213.902 477.867 477.867s-213.902 477.867-477.867 477.867z" />
<glyph unicode="&#xe91c;" glyph-name="up-arrow-angle" d="M53.632 187.264l456.96 453.248 457.28-453.552c6.352-6.304 14.672-9.44 22.976-9.44 8.32 0 16.64 3.136 22.976 9.44 12.688 12.592 12.688 32.992 0 45.584l-479.68 475.76c-3.2 3.2-7.904 6-12.112 7.6-12 4.512-25.552 1.712-34.656-7.296l-479.712-475.76c-12.688-12.592-12.688-32.992 0-45.584 12.704-12.576 33.264-12.576 45.968 0z" />
<glyph unicode="&#xe91d;" glyph-name="user" d="M657.636 350.151c0 0-68.267-2.276-79.644 70.542 11.378 6.827 22.756 18.204 31.858 29.582 18.204 25.031 29.582 54.613 34.133 86.471 2.276 2.276 2.276 2.276 2.276 4.551 6.827 18.204 11.378 36.409 11.378 54.613 0 75.093-56.889 134.258-125.156 134.258-18.204 2.276-36.409-2.276-52.338-9.102-6.827 0-13.653-2.276-18.204-2.276-29.582-9.102-52.338-31.858-65.991-61.44-11.378-29.582-15.929-63.716-6.827-95.573 2.276-6.827 4.551-13.653 6.827-20.48 0-2.276 2.276-2.276 2.276-4.551 6.827-50.062 31.858-93.298 63.716-116.053-9.102-72.818-77.369-70.542-79.644-70.542-50.062-2.276-88.747-40.96-88.747-91.022v-102.4c0-6.827 6.827-13.653 13.653-13.653h423.253c6.827 0 13.653 6.827 13.653 13.653v102.4c2.276 47.787-36.409 88.747-86.471 91.022zM468.764 691.484c4.551 2.276 9.102 2.276 15.929 2.276 2.276 0 4.551 0 4.551 2.276 13.653 6.827 27.307 11.378 43.236 11.378 54.613 0 100.124-47.787 100.124-109.227 0-2.276 0-4.551 0-4.551-11.378 11.378-25.031 18.204-40.96 18.204h-91.022c-4.551 0-11.378 2.276-15.929 4.551-4.551 0-6.827 4.551-9.102 9.102-2.276 6.827-9.102 9.102-15.929 9.102s-13.653-4.551-15.929-11.378c-4.551-20.48-13.653-38.684-29.582-54.613-13.653 54.613 11.378 109.227 54.613 122.88zM457.387 461.653c-18.204 20.48-29.582 50.062-31.858 79.644 15.929 15.929 29.582 34.133 38.684 54.613 2.276 0 2.276-2.276 4.551-2.276 9.102-6.827 18.204-11.378 29.582-11.378h91.022c13.653 0 25.031-6.827 29.582-18.204 0 0 0 0 0 0 0-75.093-43.236-136.533-97.849-136.533-22.756 0-45.511 11.378-63.716 34.133zM489.244 407.040c11.378-4.551 22.756-6.827 34.133-6.827s22.756 2.276 34.133 6.827c4.551-25.031 18.204-47.787 38.684-63.716l-72.818-97.849c0 0 0 0-2.276 0 0 0-2.276 0-2.276 0l-70.542 100.124c20.48 13.653 34.133 36.409 40.96 61.44zM721.351 168.107h-398.222v88.747c0 36.409 29.582 65.991 63.716 65.991 0 0 22.756 0 38.684 9.102l70.542-100.124c4.551-6.827 13.653-11.378 22.756-11.378 0 0 0 0 0 0 9.102 0 18.204 4.551 22.756 11.378l70.542 100.124c20.48-9.102 38.684-9.102 38.684-9.102 36.409 0 65.991-29.582 65.991-63.716v-91.022zM512-52.622c-275.342 0-500.622 225.28-500.622 500.622s225.28 500.622 500.622 500.622 500.622-225.28 500.622-500.622-225.28-500.622-500.622-500.622zM512 925.867c-263.964 0-477.867-213.902-477.867-477.867s213.902-477.867 477.867-477.867c263.964 0 477.867 213.902 477.867 477.867s-213.902 477.867-477.867 477.867z" />
<glyph unicode="&#xe91e;" glyph-name="direction" d="M505.173-52.622c-275.342 0-500.622 225.28-500.622 500.622s225.28 500.622 500.622 500.622 500.622-225.28 500.622-500.622-225.28-500.622-500.622-500.622zM505.173 925.867c-263.964 0-477.867-213.902-477.867-477.867s213.902-477.867 477.867-477.867 477.867 213.902 477.867 477.867-213.902 477.867-477.867 477.867zM650.809 686.933l-27.307-27.307 52.338-52.338h-84.196c-54.613 0-100.124-43.236-100.124-100.124v-100.124c-15.929 11.378-38.684 20.48-59.164 20.48h-84.196l52.338 52.338-27.307 27.307-100.124-100.124 100.124-100.124 27.307 27.307-52.338 52.338h84.196c34.133 0 59.164-25.031 59.164-59.164v-118.329h40.96v298.098c0 34.133 25.031 59.164 59.164 59.164h84.196l-52.338-52.338 27.307-27.307 100.124 100.124-100.124 100.124z" />
<glyph unicode="&#xe91f;" glyph-name="close" d="M463.056 451.424l-453.248-453.248c-12.592-12.592-12.592-32.992 0-45.584 6.288-6.304 14.544-9.44 22.784-9.44 8.256 0 16.496 3.136 22.784 9.44l456.656 456.656 456.656-456.656c6.304-6.304 14.544-9.44 22.784-9.44s16.496 3.136 22.784 9.44c12.592 12.592 12.592 32.992 0 45.584l-453.232 453.248 453.536 453.568c12.592 12.592 12.592 32.992 0 45.584-12.592 12.576-32.992 12.576-45.568 0l-456.944-456.976-456.992 456.96c-12.592 12.576-32.976 12.576-45.568 0-12.592-12.592-12.592-32.992 0-45.584l453.568-453.552z" />
</font>
</defs>
</svg>
